<svg xmlns="http://www.w3.org/2000/svg" viewBox="0 0 100 100">
  <!-- Red circle background -->
  <circle cx="50" cy="50" r="48" fill="#CC0000" stroke="#003366" stroke-width="2"/>
  
  <!-- Blue C letter -->
  <path d="M 65 30 Q 75 30 75 42 Q 75 50 68 50 L 60 50 L 60 40 L 65 40 Q 68 40 68 42 Q 68 44 65 44 L 55 44 L 55 56 L 65 56 Q 68 56 68 58 Q 68 60 65 60 L 60 60 L 60 50 L 68 50 Q 75 50 75 58 Q 75 70 65 70 L 40 70 Q 30 70 30 58 L 30 42 Q 30 30 40 30 Z M 40 40 L 40 60 L 50 60 L 50 40 Z" fill="#003366"/>
  
  <!-- Better C shape -->
  <path d="M 70,50 A 25,25 0 1,1 70,51 L 55,51 L 55,49 L 70,49 Z M 45,35 A 15,15 0 0,0 45,65 L 55,65 L 55,35 Z" fill="#003366" transform="translate(-5,0)"/>
</svg>
